<?xml version="1.0" standalone="no"?>
<!DOCTYPE svg PUBLIC "-//W3C//DTD SVG 20010904//EN"
 "http://www.w3.org/TR/2001/REC-SVG-20010904/DTD/svg10.dtd">
<svg version="1.0" xmlns="http://www.w3.org/2000/svg"
 width="350.000000pt" height="99.000000pt" viewBox="0 0 350.000000 99.000000"
 preserveAspectRatio="xMidYMid meet">

<g transform="translate(0.000000,99.000000) scale(0.100000,-0.100000)"
fill="#000000" stroke="none">
<path d="M280 949 c-225 -113 -335 -359 -249 -558 40 -93 119 -141 231 -141
153 0 249 95 252 248 2 116 -42 192 -129 223 -25 9 -35 19 -35 34 0 25 33 98
60 132 l20 25 -28 39 c-15 21 -30 39 -33 39 -4 0 -44 -19 -89 -41z m-30 -184
c-11 -38 -19 -84 -19 -101 -1 -30 1 -32 49 -36 28 -3 59 -13 70 -23 52 -48 50
-157 -5 -212 -28 -28 -40 -33 -83 -33 -34 0 -57 6 -75 20 -66 52 -75 194 -19
314 26 56 91 151 98 143 1 -1 -6 -33 -16 -72z"/>
<path d="M2130 727 c-135 -43 -185 -264 -89 -399 29 -40 111 -78 169 -78 143
0 235 96 235 245 0 179 -145 286 -315 232z m131 -103 c80 -41 79 -218 -1 -259
-20 -10 -42 -14 -60 -10 -106 23 -117 234 -15 276 30 12 43 11 76 -7z"/>
<path d="M2642 729 c-78 -23 -142 -129 -142 -236 0 -166 97 -252 271 -240 109
7 133 21 137 76 3 43 3 44 -25 37 -73 -17 -169 -18 -201 -2 -29 15 -62 60 -62
85 0 7 57 12 153 13 l152 3 3 33 c5 54 -17 140 -46 174 -50 59 -149 83 -240
57z m132 -101 c15 -13 29 -38 32 -55 l7 -33 -97 0 c-53 0 -96 4 -96 9 0 4 5
22 11 40 20 58 97 79 143 39z"/>
<path d="M3160 731 c-112 -36 -169 -119 -170 -242 0 -115 33 -178 116 -216
l53 -24 -14 -47 c-8 -26 -28 -65 -43 -88 l-29 -41 31 -36 31 -37 58 24 c121
50 231 162 278 284 32 83 33 218 1 287 -44 96 -106 136 -217 141 -38 2 -81 0
-95 -5z m159 -126 c66 -56 69 -194 8 -318 -20 -39 -49 -85 -66 -101 l-30 -29
14 54 c8 30 15 74 17 99 l3 45 -49 6 c-36 4 -55 12 -71 31 -47 54 -39 155 15
210 39 39 114 40 159 3z"/>
<path d="M545 693 c79 -205 154 -429 149 -445 -8 -25 -48 -50 -92 -57 -36 -6
-37 -7 -40 -55 -2 -27 1 -53 6 -58 16 -16 124 10 166 40 56 39 88 104 182 368
46 130 84 238 84 240 0 2 -28 4 -63 4 l-64 0 -49 -160 c-27 -88 -51 -160 -55
-160 -3 0 -28 72 -55 160 l-49 160 -67 0 -68 0 15 -37z"/>
<path d="M1060 495 l0 -235 60 0 60 0 0 95 c0 76 3 95 14 95 8 0 44 -43 81
-95 l66 -95 70 0 71 0 -34 47 c-19 27 -58 81 -88 121 l-53 73 37 52 c20 29 57
80 82 115 l46 62 -69 0 -68 -1 -63 -94 c-35 -52 -70 -95 -78 -95 -11 0 -14 20
-14 95 l0 95 -60 0 -60 0 0 -235z"/>
<path d="M1538 593 c-3 -76 -3 -182 0 -237 l5 -98 146 4 c158 4 190 13 230 64
32 40 29 113 -5 148 -15 14 -33 26 -40 26 -19 0 -18 19 1 27 21 7 45 55 45 88
0 38 -25 79 -57 95 -19 9 -76 15 -174 18 l-146 4 -5 -139z m247 31 c40 -41 -7
-86 -85 -82 l-45 3 -3 48 -3 47 60 0 c42 0 64 -5 76 -16z m13 -180 c27 -19 28
-48 2 -74 -16 -16 -33 -20 -85 -20 l-65 0 0 55 0 55 63 0 c40 0 70 -5 85 -16z"/>
</g>
</svg>
