<?xml version="1.0" standalone="no"?>
<!DOCTYPE svg PUBLIC "-//W3C//DTD SVG 20010904//EN"
 "http://www.w3.org/TR/2001/REC-SVG-20010904/DTD/svg10.dtd">
<svg version="1.0" xmlns="http://www.w3.org/2000/svg"
 width="350.000000pt" height="136.000000pt" viewBox="0 0 350.000000 136.000000"
 preserveAspectRatio="xMidYMid meet">

<g transform="translate(0.000000,136.000000) scale(0.100000,-0.100000)"
fill="#000000" stroke="none">
<path d="M3200 1341 c0 -30 56 -71 97 -71 37 0 93 44 93 74 0 23 -36 20 -60
-4 -11 -11 -29 -20 -40 -20 -11 0 -25 9 -32 20 -17 26 -58 27 -58 1z"/>
<path d="M1467 1230 c-20 -4 -39 -9 -41 -11 -1 -2 25 -181 58 -397 l61 -394
44 6 c25 3 45 7 47 9 4 5 -119 782 -125 788 -3 3 -23 3 -44 -1z"/>
<path d="M0 830 l0 -400 268 0 268 0 34 400 35 400 -302 0 -303 0 0 -400z"/>
<path d="M705 1188 c-6 -51 -65 -713 -65 -740 0 -16 10 -18 103 -18 l102 0
-21 398 c-12 218 -22 398 -23 400 -1 1 -21 2 -45 2 l-45 0 -6 -42z"/>
<path d="M1007 1148 c3 -46 12 -225 21 -398 l17 -315 43 -3 42 -3 0 400 0 401
-64 0 -64 0 5 -82z"/>
<path d="M1190 830 l0 -400 90 0 90 0 0 400 0 400 -90 0 -90 0 0 -400z"/>
<path d="M1781 1144 c4 -83 5 -87 37 -115 32 -29 38 -30 110 -28 l77 2 3 -81
3 -82 39 0 40 0 0 195 0 195 -40 0 -40 0 0 -75 c0 -85 -2 -88 -77 -89 -59 -1
-73 18 -73 101 l0 63 -41 0 -41 0 3 -86z"/>
<path d="M2150 1035 l0 -195 44 0 44 0 74 136 73 136 5 -134 5 -133 40 0 40 0
3 157 2 156 50 7 c27 4 54 4 60 0 6 -4 10 -65 10 -166 l0 -159 40 0 40 0 2
162 3 162 63 -3 62 -2 0 35 0 36 -217 -2 -217 -3 -71 -130 -70 -129 -3 132 -3
132 -39 0 -40 0 0 -195z"/>
<path d="M2806 1047 c-38 -100 -71 -188 -74 -195 -3 -10 6 -12 38 -10 41 3 44
5 59 46 l15 42 77 0 77 0 14 -42 c14 -41 17 -43 56 -46 23 -2 42 0 42 4 0 4
-32 92 -72 196 l-71 188 -46 0 -46 0 -69 -183z m143 21 c12 -34 21 -66 21 -70
0 -4 -22 -8 -50 -8 -27 0 -50 3 -50 8 0 16 45 132 51 132 4 0 17 -28 28 -62z"/>
<path d="M3122 1038 l3 -193 45 -3 45 -3 75 138 75 138 3 -137 3 -138 39 0 40
0 0 195 0 195 -47 0 -48 0 -70 -130 -70 -130 -3 130 -3 130 -45 0 -44 0 2
-192z"/>
<path d="M2107 816 c-78 -28 -116 -92 -117 -194 0 -124 74 -202 192 -202 103
0 177 73 185 183 13 160 -115 264 -260 213z m130 -71 c34 -24 57 -96 48 -151
-17 -116 -148 -145 -200 -44 -32 61 -13 159 37 194 28 20 87 21 115 1z"/>
<path d="M2843 817 c-141 -53 -167 -281 -41 -365 83 -55 204 -35 264 44 25 32
29 48 32 114 6 112 -30 175 -115 206 -46 16 -97 16 -140 1z m129 -77 c37 -28
51 -72 46 -137 -4 -48 -10 -61 -37 -85 -36 -32 -92 -38 -128 -13 -67 47 -63
202 6 240 37 20 84 18 113 -5z"/>
<path d="M1780 625 l0 -195 40 0 40 0 0 160 0 160 70 0 70 0 0 35 0 35 -110 0
-110 0 0 -195z"/>
<path d="M2390 625 l0 -195 40 0 39 0 3 68 3 67 75 6 c116 8 150 36 150 124 0
98 -45 125 -205 125 l-105 0 0 -195z m211 115 c24 -13 26 -72 3 -91 -10 -8
-41 -14 -73 -14 l-56 0 -3 58 -3 57 56 0 c31 0 65 -5 76 -10z"/>
<path d="M3173 708 c-11 -125 -42 -208 -75 -208 -16 0 -18 -10 -18 -85 l0 -85
40 0 40 0 0 50 0 50 130 0 130 0 0 -50 0 -50 40 0 40 0 0 85 c0 84 0 85 -25
85 l-25 0 0 160 0 160 -133 0 -133 0 -11 -112z m197 -83 l0 -125 -81 0 c-73 0
-80 2 -74 18 20 47 35 110 41 168 l7 64 53 0 54 0 0 -125z"/>
<path d="M276 124 c-38 -37 -24 -104 24 -119 22 -7 70 17 70 35 0 15 -17 12
-24 -5 -8 -22 -53 -19 -66 4 -15 29 -12 49 11 72 19 19 22 20 46 4 29 -20 41
-14 18 9 -21 20 -59 21 -79 0z"/>
<path d="M418 129 c-22 -12 -33 -71 -19 -98 7 -11 22 -23 35 -27 27 -6 66 10
66 28 0 9 -3 9 -12 0 -25 -25 -78 -8 -78 25 0 9 16 13 50 13 54 0 61 10 34 48
-16 23 -48 28 -76 11z m56 -15 c25 -25 19 -34 -24 -34 -44 0 -48 5 -23 32 20
22 27 22 47 2z"/>
<path d="M520 130 c0 -5 11 -10 25 -10 24 0 25 -3 25 -55 0 -30 5 -55 10 -55
6 0 10 25 10 55 0 48 2 55 20 55 11 0 20 5 20 10 0 6 -25 10 -55 10 -30 0 -55
-4 -55 -10z"/>
<path d="M661 77 l-1 -68 48 3 c45 3 47 4 47 33 0 27 -3 30 -40 35 -35 4 -41
9 -46 35 -5 21 -7 9 -8 -38z m82 -21 c8 -20 -17 -38 -45 -34 -15 2 -24 11 -26
26 -3 19 1 22 31 22 21 0 37 -6 40 -14z"/>
<path d="M860 75 c0 -37 4 -65 10 -65 6 0 10 11 10 24 0 36 24 38 49 5 12 -16
26 -29 32 -29 6 0 -1 16 -16 36 l-27 35 23 25 c35 38 13 41 -26 4 l-35 -34 0
32 c0 18 -4 32 -10 32 -6 0 -10 -28 -10 -65z"/>
<path d="M1002 75 c0 -45 3 -59 7 -40 5 25 12 31 39 33 30 3 32 1 32 -27 0
-17 5 -31 10 -31 6 0 10 29 10 66 0 41 -4 63 -10 59 -5 -3 -10 -17 -10 -31 0
-22 -4 -25 -32 -22 -27 2 -34 8 -39 33 -4 19 -7 5 -7 -40z"/>
<path d="M1140 75 c0 -82 16 -85 56 -12 l29 52 3 -52 c2 -29 8 -53 13 -53 14
0 7 122 -8 127 -7 3 -25 -20 -40 -49 l-28 -53 -3 53 c-4 75 -22 65 -22 -13z"/>
<path d="M1286 128 c4 -7 14 -21 22 -30 13 -16 12 -21 -12 -53 -17 -22 -22
-35 -14 -35 8 0 22 14 32 31 14 23 21 28 31 19 8 -6 16 -21 18 -33 4 -22 4
-22 6 -1 2 40 25 46 46 13 11 -16 26 -29 33 -29 8 0 4 12 -12 33 -31 41 -32
45 -4 74 12 13 17 23 12 23 -6 0 -23 -14 -40 -31 l-29 -31 -6 34 -6 33 -2 -32
c-1 -41 -11 -41 -39 -3 -22 29 -51 43 -36 18z"/>
<path d="M1488 134 c-12 -11 -10 -124 2 -124 6 0 10 13 10 30 0 28 3 30 35 30
32 0 35 -2 35 -30 0 -17 5 -30 10 -30 6 0 10 28 10 65 0 37 -4 65 -10 65 -5 0
-10 -13 -10 -30 0 -28 -3 -30 -34 -30 -31 0 -35 3 -38 31 -2 17 -6 27 -10 23z"/>
<path d="M1631 78 l-1 -68 39 0 c44 0 66 19 56 50 -6 19 -12 22 -60 24 -13 1
-22 10 -26 31 -5 21 -7 9 -8 -37z m76 -24 c7 -19 -14 -35 -42 -32 -12 2 -21
12 -23 26 -3 19 1 22 28 22 19 0 33 -6 37 -16z"/>
<path d="M1757 133 c-11 -10 -8 -123 3 -123 6 0 10 28 10 65 0 65 -1 71 -13
58z"/>
<path d="M1814 118 c28 -39 29 -47 7 -74 -12 -15 -19 -30 -15 -33 3 -3 16 7
28 22 l23 28 17 -25 c25 -40 41 -31 16 9 l-22 35 21 26 c12 15 19 30 15 33 -3
3 -16 -7 -28 -22 l-23 -28 -17 25 c-9 14 -21 26 -27 26 -7 0 -5 -9 5 -22z"/>
<path d="M2010 76 c0 -75 19 -92 21 -18 l1 47 21 -48 c11 -26 26 -46 31 -44 6
2 18 22 26 45 8 23 18 42 22 42 4 0 9 -21 11 -47 3 -39 4 -36 5 20 2 83 -12
86 -44 7 l-21 -53 -21 54 c-11 30 -27 55 -36 57 -13 3 -16 -7 -16 -62z"/>
<path d="M2200 125 c-18 -22 -5 -31 15 -11 19 18 24 19 44 7 21 -13 5 -41 -23
-41 -24 0 -56 -23 -56 -40 0 -20 34 -41 54 -35 12 4 30 7 41 6 18 0 20 5 16
52 -1 29 -8 58 -13 65 -14 17 -63 15 -78 -3z m68 -77 c-3 -25 -43 -37 -61 -19
-15 15 10 41 40 41 20 0 24 -4 21 -22z"/>
<path d="M2330 75 c0 -37 4 -65 10 -65 6 0 10 25 10 55 l0 55 36 0 c21 0 33 4
29 10 -3 6 -24 10 -46 10 l-39 0 0 -65z"/>
<path d="M2452 128 c-21 -21 -13 -29 11 -13 20 13 26 13 42 1 21 -15 12 -36
-16 -36 -31 0 -59 -19 -59 -40 0 -22 35 -45 52 -34 6 4 23 7 37 6 27 -1 27 0
21 54 -4 32 -12 59 -21 65 -20 12 -53 11 -67 -3z m68 -71 c0 -20 -22 -37 -47
-37 -16 0 -23 6 -23 19 0 11 6 22 13 24 24 10 57 7 57 -6z"/>
<path d="M2580 125 c-18 -22 -4 -31 16 -11 9 10 23 15 31 12 8 -3 17 -6 19 -6
15 0 0 -32 -18 -40 -14 -5 -17 -9 -7 -9 21 -1 38 -21 32 -37 -6 -16 -63 -19
-63 -4 0 6 -4 10 -10 10 -19 0 -10 -21 15 -32 19 -8 31 -8 50 0 22 10 24 17
23 59 -1 26 -6 54 -11 61 -13 17 -62 15 -77 -3z"/>
<path d="M2708 134 c-5 -4 -8 -34 -8 -66 0 -75 19 -77 60 -5 l30 52 0 -52 c0
-29 5 -53 10 -53 6 0 10 28 10 65 0 69 -10 81 -35 40 -8 -14 -23 -37 -32 -52
l-18 -28 -5 53 c-3 30 -8 50 -12 46z"/>
<path d="M2852 75 c0 -45 3 -59 7 -40 5 26 10 30 41 30 31 0 36 -4 41 -30 4
-19 7 -5 7 40 0 45 -3 59 -7 40 -5 -26 -10 -30 -41 -30 -31 0 -36 4 -41 30 -4
19 -7 5 -7 -40z"/>
<path d="M3006 124 c-36 -35 -28 -91 14 -114 63 -34 121 59 70 110 -24 24 -63
26 -84 4z m82 -42 c8 -52 -54 -86 -78 -43 -15 29 -12 49 11 72 18 18 23 19 42
6 12 -8 23 -24 25 -35z"/>
<path d="M3140 75 l0 -65 44 0 c52 0 73 18 57 49 -6 11 -8 27 -4 37 9 23 -22
44 -64 44 l-33 0 0 -65z m78 28 c-2 -11 -14 -19 -31 -21 -22 -3 -27 1 -27 17
0 17 6 21 31 21 24 0 30 -4 27 -17z m1 -42 c23 -15 5 -41 -29 -41 -25 0 -30 4
-30 25 0 19 5 25 23 25 12 0 28 -4 36 -9z"/>
</g>
</svg>
