<?xml version="1.0" standalone="no"?>
<!DOCTYPE svg PUBLIC "-//W3C//DTD SVG 20010904//EN"
 "http://www.w3.org/TR/2001/REC-SVG-20010904/DTD/svg10.dtd">
<svg version="1.0" xmlns="http://www.w3.org/2000/svg"
 width="450.000000pt" height="90.000000pt" viewBox="0 0 450.000000 90.000000"
 preserveAspectRatio="xMidYMid meet">

<g transform="translate(0.000000,90.000000) scale(0.100000,-0.100000)"
fill="#000000" stroke="none">
<path d="M1691 876 c-16 -16 -54 -33 -123 -52 -120 -33 -170 -67 -213 -144
-29 -53 -30 -59 -30 -190 0 -124 2 -139 25 -185 16 -32 41 -61 68 -80 39 -26
54 -30 128 -34 76 -3 90 0 140 24 37 18 64 40 82 68 24 36 27 50 27 128 0 81
-2 90 -30 130 -61 87 -188 119 -282 71 -38 -20 -42 -20 -35 -4 24 59 62 84
169 111 104 26 159 53 183 94 11 18 20 35 20 38 0 6 -18 14 -95 45 -6 3 -21
-6 -34 -20z m-51 -371 c32 -29 45 -88 31 -135 -29 -97 -174 -109 -212 -18 -27
66 -10 135 43 165 31 18 113 11 138 -12z"/>
<path d="M377 713 c-62 -87 -173 -240 -245 -340 l-132 -183 77 0 78 0 170 237
170 236 3 -236 2 -237 70 0 70 0 0 250 0 249 -61 3 -61 3 44 60 c24 33 52 72
62 88 l18 27 -75 0 -76 0 -114 -157z"/>
<path d="M895 659 c-94 -22 -165 -123 -165 -234 0 -65 25 -133 63 -173 63 -68
179 -85 262 -39 l45 26 0 -25 c0 -23 3 -24 60 -24 l60 0 0 235 0 235 -60 0
c-57 0 -60 -1 -60 -24 l0 -25 -42 24 c-52 28 -109 36 -163 24z m149 -120 c77
-61 73 -181 -9 -235 -38 -25 -112 -14 -142 20 -46 54 -49 130 -8 193 31 46
113 58 159 22z"/>
<path d="M2657 656 c-26 -7 -55 -20 -65 -29 -25 -23 -32 -21 -32 8 0 24 -3 25
-55 25 l-55 0 0 -330 0 -330 55 0 55 0 0 120 c0 66 2 120 5 120 3 0 18 -9 33
-20 62 -44 166 -44 239 1 69 43 112 161 93 254 -29 139 -144 215 -273 181z
m102 -122 c63 -52 65 -152 6 -211 -77 -77 -198 -15 -198 102 0 111 113 176
192 109z"/>
<path d="M1900 425 l0 -236 57 3 57 3 96 133 95 132 3 -135 3 -135 59 0 60 0
0 235 0 235 -54 0 -55 0 -98 -136 -98 -137 -2 114 c-4 163 -2 159 -68 159
l-55 0 0 -235z"/>
<path d="M3030 425 l0 -235 53 0 54 0 99 138 99 137 3 -137 3 -138 59 0 60 0
0 235 0 235 -57 0 -58 -1 -95 -134 c-52 -74 -98 -135 -102 -135 -5 0 -8 61 -8
135 l0 135 -55 0 -55 0 0 -235z"/>
<path d="M3570 425 l0 -235 60 0 60 0 0 95 0 95 95 0 95 0 0 -95 0 -95 60 0
60 0 0 235 0 235 -60 0 -60 0 0 -90 0 -90 -95 0 -95 0 0 90 0 90 -60 0 -60 0
0 -235z"/>
<path d="M4080 610 l0 -50 75 0 75 0 0 -185 0 -185 60 0 60 0 0 185 0 185 75
0 75 0 0 50 0 50 -210 0 -210 0 0 -50z"/>
</g>
</svg>
