<svg width="196" height="32" xmlns="http://www.w3.org/2000/svg" fill="none" viewBox="6 7 196.84 32"><path d="M156.27 32.3441C159.851 32.3441 162.707 31.7679 165.493 30.508V25.2975C165.493 25.195 165.385 25.1315 165.292 25.1803C162.407 26.6893 159.768 27.3436 156.27 27.3436C152.036 27.3436 149.867 25.3268 149.867 21.4397C149.867 17.5527 152.04 15.5359 156.27 15.5359C159.773 15.5359 162.407 16.1902 165.292 17.6992C165.385 17.748 165.493 17.6845 165.493 17.582V12.3715C162.707 11.1116 159.851 10.5354 156.27 10.5354C148.601 10.5354 144.19 14.4957 144.19 21.4446C144.19 28.3935 148.601 32.3539 156.27 32.3539V32.3441Z" fill="#FF5500"></path><path d="M141.614 21.7913C141.614 13.9781 136.806 10.5598 129.893 10.5598C122.371 10.5598 117.813 14.6618 117.813 21.3616C117.813 29.6095 122.95 32.3441 130.403 32.3441C134.927 32.3441 138.508 31.6214 140.966 30.6545V25.6589C140.966 25.5563 140.858 25.4929 140.77 25.5368C138.989 26.4207 134.936 27.4852 130.477 27.4852C126.561 27.4852 124.093 26.2205 123.544 23.1294H141.319C141.432 23.1294 141.525 23.0463 141.545 22.9389C141.599 22.5629 141.624 22.1673 141.624 21.7962L141.614 21.7913ZM129.893 15.238C133.396 15.238 135.329 16.8006 136.045 19.0909H123.642C124.25 16.62 126.139 15.238 129.888 15.238" fill="#FF5500"></path><path d="M104.964 10.5208C101.187 10.5208 98.6109 11.9906 97.0065 14.1686C96.9673 14.2223 96.8789 14.1979 96.8789 14.1295L96.7906 11.097H91.4036V39H96.9378V28.794C96.9378 28.7256 97.0212 28.6963 97.0654 28.7549C98.6697 30.8986 101.231 32.3441 104.969 32.3441C111.372 32.3441 115.351 27.7733 115.351 21.4349C115.351 15.0964 111.372 10.5256 104.969 10.5256M103.306 27.3387C99.5774 27.3387 96.9378 24.9997 96.9378 21.4349C96.9378 17.8701 99.5774 15.531 103.306 15.531C107.319 15.531 109.527 17.7968 109.527 21.4349C109.527 25.0729 107.319 27.3387 103.306 27.3387Z" fill="#FF5500"></path><path d="M73.7801 31.802H79.3144V16.1072H88.5725V11.1018H64.5171V16.1072H73.7801V31.802Z" fill="#0A1E78"></path><path d="M44.4695 22.5728V11.0971H38.9009V32.1343C38.9009 32.4321 39.2394 32.6031 39.4798 32.4273L56.1905 20.307V31.8022H61.7591V10.7651C61.7591 10.4672 61.4206 10.2963 61.1802 10.4721L44.4695 22.5679V22.5728Z" fill="#0A1E78"></path><path d="M8.67882 32.0512C7.13335 32.0512 6 31.9828 6 31.9828V27.0068H6.89785C7.94288 27.0068 8.73279 26.7577 9.25285 26.2596C9.77782 25.7615 10.1654 24.9509 10.4156 23.8229C10.6659 22.6997 10.8621 21.0101 11.0044 18.7589C11.0976 17.1719 11.1957 14.6277 11.2889 11.1215C11.3135 10.0325 11.3478 8.65543 11.3969 7H33.7204V31.8021H27.5777V11.7612H17.1421C17.1176 12.0933 17.0587 13.4069 16.9655 15.7069C16.9164 17.3184 16.8723 18.339 16.8232 18.7638C16.6073 22.2016 16.2737 24.8288 15.8223 26.6503C15.371 28.4766 14.5958 29.8293 13.5017 30.718C12.4076 31.6068 10.7983 32.0512 8.68372 32.0512H8.67882Z" fill="#0A1E78"></path><path d="M177.969 11.0823C177.812 11.0823 177.768 11.1799 177.881 11.2874C178.489 11.8978 178.872 12.7377 178.872 13.6655C178.872 14.5933 178.494 15.4333 177.886 16.0388C177.768 16.156 177.807 16.2488 178.028 16.2488H191.103C191.844 15.6335 192.32 14.7008 192.32 13.6606C192.32 12.6205 191.844 11.6927 191.103 11.0725H177.974L177.969 11.0823Z" fill="#0A1E78"></path><path d="M177.969 18.8567C177.812 18.8567 177.768 18.9544 177.881 19.0618C178.489 19.6722 178.872 20.5121 178.872 21.4399C178.872 22.3678 178.494 23.2077 177.886 23.8132C177.768 23.9304 177.807 24.0232 178.028 24.0232H186.006C186.747 23.4079 187.222 22.4752 187.222 21.4351C187.222 20.3949 186.747 19.4671 186.006 18.8469H177.974L177.969 18.8567Z" fill="#0A1E78"></path><path d="M177.97 26.6306C177.803 26.6306 177.763 26.7234 177.886 26.8406C178.495 27.451 178.872 28.286 178.872 29.2187C178.872 30.1515 178.495 30.9865 177.886 31.592C177.768 31.7092 177.808 31.802 178.028 31.802H180.913C181.654 31.1867 182.13 30.254 182.13 29.2139C182.13 28.1737 181.654 27.2459 180.913 26.6257H177.974L177.97 26.6306Z" fill="#0A1E78"></path><path d="M201.627 11.0825H198.119C198.86 11.7027 199.336 12.6256 199.336 13.6707C199.336 14.7157 198.86 15.6386 198.119 16.2588H201.627C202.368 15.6435 202.844 14.7157 202.844 13.6707C202.844 12.6256 202.368 11.7027 201.627 11.0825Z" fill="#FF5500"></path><path d="M198.114 11.0825H194.606C195.347 11.7027 195.823 12.6256 195.823 13.6707C195.823 14.7157 195.347 15.6386 194.606 16.2588H198.114C198.855 15.6435 199.331 14.7157 199.331 13.6707C199.331 12.6256 198.855 11.7027 198.114 11.0825Z" fill="#6262D9"></path><path d="M201.627 18.8567H193.022C193.763 19.4769 194.238 20.3998 194.238 21.4448C194.238 22.4898 193.763 23.4128 193.022 24.033H201.627C202.368 23.4177 202.844 22.4898 202.844 21.4448C202.844 20.3998 202.368 19.4769 201.627 18.8567Z" fill="#FF5500"></path><path d="M193.022 18.8567H189.514C190.255 19.4769 190.73 20.3998 190.73 21.4448C190.73 22.4898 190.255 23.4128 189.514 24.033H193.022C193.762 23.4177 194.238 22.4898 194.238 21.4448C194.238 20.3998 193.762 19.4769 193.022 18.8567Z" fill="#6262D9"></path><path d="M194.607 11.0825H191.099C191.839 11.7027 192.315 12.6256 192.315 13.6707C192.315 14.7157 191.839 15.6386 191.099 16.2588H194.607C195.347 15.6435 195.823 14.7157 195.823 13.6707C195.823 12.6256 195.347 11.7027 194.607 11.0825Z" fill="#3D3DC7"></path><path d="M189.509 18.8567H186.001C186.742 19.4769 187.218 20.3998 187.218 21.4448C187.218 22.4898 186.742 23.4128 186.001 24.033H189.509C190.25 23.4177 190.726 22.4898 190.726 21.4448C190.726 20.3998 190.25 19.4769 189.509 18.8567Z" fill="#3D3DC7"></path><path d="M201.627 26.6306H187.929C188.67 27.2508 189.145 28.1737 189.145 29.2187C189.145 30.2638 188.67 31.1867 187.929 31.8069H201.627C202.368 31.1916 202.844 30.2638 202.844 29.2187C202.844 28.1737 202.368 27.2508 201.627 26.6306Z" fill="#FF5500"></path><path d="M187.924 26.6306H184.416C185.157 27.2508 185.633 28.1737 185.633 29.2187C185.633 30.2638 185.157 31.1867 184.416 31.8069H187.924C188.665 31.1916 189.141 30.2638 189.141 29.2187C189.141 28.1737 188.665 27.2508 187.924 26.6306Z" fill="#6262D9"></path><path d="M184.416 26.6306H180.908C181.649 27.2508 182.125 28.1737 182.125 29.2187C182.125 30.2638 181.649 31.1867 180.908 31.8069H184.416C185.157 31.1916 185.633 30.2638 185.633 29.2187C185.633 28.1737 185.157 27.2508 184.416 26.6306Z" fill="#3D3DC7"></path>
</svg>